<svg width="422" height="197" viewBox="0 0 422 197" fill="none" xmlns="http://www.w3.org/2000/svg">
<path d="M40.0316 34.8777C39.6668 33.6094 39.1542 32.4887 38.4939 31.5157C37.8337 30.5253 37.0258 29.6913 36.0702 29.0137C35.1319 28.3187 34.0547 27.7888 32.8384 27.4239C31.6396 27.059 30.3104 26.8766 28.8509 26.8766C26.1231 26.8766 23.7253 27.5542 21.6577 28.9095C19.6075 30.2647 18.009 32.2367 16.8623 34.8256C15.7155 37.3971 15.1422 40.5419 15.1422 44.2601C15.1422 47.9783 15.7069 51.1406 16.8362 53.7468C17.9656 56.353 19.5641 58.3424 21.6317 59.715C23.6993 61.0703 26.1404 61.7479 28.9552 61.7479C31.5093 61.7479 33.6898 61.2962 35.4968 60.3927C37.3211 59.4718 38.7111 58.1774 39.6668 56.5094C40.6397 54.8414 41.1262 52.8694 41.1262 50.5933L43.4197 50.9321H29.6588V42.4358H51.9942V49.1598C51.9942 53.851 51.0038 57.882 49.0231 61.2527C47.0424 64.6061 44.3145 67.1949 40.8395 69.0193C37.3646 70.8263 33.3857 71.7297 28.903 71.7297C23.8991 71.7297 19.5033 70.6264 15.7155 68.4198C11.9278 66.1959 8.9741 63.0423 6.85437 58.9592C4.75202 54.8588 3.70084 49.9938 3.70084 44.3644C3.70084 40.038 4.32633 36.1808 5.57732 32.7927C6.84569 29.3873 8.61792 26.503 10.894 24.1401C13.1701 21.7771 15.8198 19.9788 18.843 18.7452C21.8662 17.5116 25.1414 16.8948 28.6685 16.8948C31.6917 16.8948 34.5064 17.3378 37.1126 18.2239C39.7189 19.0927 42.0297 20.3263 44.0452 21.9248C46.0781 23.5233 47.7374 25.4258 49.0231 27.6324C50.3088 29.8216 51.1341 32.2367 51.499 34.8777H40.0316ZM67.6954 47.8567V71H56.5929V17.6245H67.3826V38.0313H67.8518C68.7553 35.6683 70.2147 33.8179 72.2302 32.48C74.2457 31.1248 76.7737 30.4471 79.8143 30.4471C82.5943 30.4471 85.0181 31.0553 87.0857 32.2715C89.1707 33.4704 90.7866 35.1992 91.9333 37.4579C93.0974 39.6992 93.6708 42.3836 93.6534 45.5111V71H82.5509V47.4918C82.5683 45.0246 81.9428 43.1047 80.6744 41.7321C79.4234 40.3595 77.6686 39.6732 75.4098 39.6732C73.8982 39.6732 72.5604 39.9946 71.3962 40.6375C70.2495 41.2803 69.346 42.2186 68.6858 43.4522C68.0429 44.6684 67.7128 46.1366 67.6954 47.8567ZM110.136 71.7558C107.582 71.7558 105.306 71.3127 103.308 70.4266C101.31 69.5231 99.7289 68.194 98.5648 66.4391C97.4181 64.6669 96.8447 62.4603 96.8447 59.8193C96.8447 57.5953 97.253 55.7275 98.0696 54.2159C98.8863 52.7043 99.9983 51.4881 101.406 50.5672C102.813 49.6463 104.411 48.9513 106.201 48.4822C108.008 48.0131 109.902 47.683 111.883 47.4918C114.211 47.2486 116.087 47.0227 117.512 46.8142C118.937 46.5884 119.971 46.2582 120.613 45.8239C121.256 45.3895 121.578 44.7466 121.578 43.8953V43.7389C121.578 42.0883 121.057 40.8112 120.014 39.9077C118.989 39.0042 117.529 38.5525 115.636 38.5525C113.637 38.5525 112.048 38.9956 110.866 39.8817C109.685 40.7504 108.903 41.845 108.521 43.1655L98.2521 42.3315C98.7733 39.899 99.7984 37.7967 101.327 36.0245C102.856 34.2348 104.828 32.8622 107.244 31.9066C109.676 30.9336 112.491 30.4471 115.688 30.4471C117.912 30.4471 120.04 30.7078 122.073 31.229C124.123 31.7502 125.939 32.5582 127.52 33.6528C129.118 34.7474 130.378 36.1548 131.299 37.8749C132.22 39.5776 132.68 41.6192 132.68 43.9995V71H122.151V65.4487H121.838C121.196 66.6997 120.335 67.803 119.258 68.7586C118.181 69.6969 116.887 70.4353 115.375 70.9739C113.863 71.4952 112.117 71.7558 110.136 71.7558ZM113.316 64.0935C114.949 64.0935 116.391 63.7721 117.642 63.1292C118.893 62.469 119.875 61.5828 120.587 60.4709C121.3 59.3589 121.656 58.0992 121.656 56.6918V52.4437C121.308 52.6695 120.831 52.878 120.223 53.0692C119.632 53.2429 118.963 53.408 118.216 53.5644C117.469 53.7034 116.722 53.8337 115.974 53.9553C115.227 54.0595 114.55 54.1551 113.942 54.242C112.638 54.4331 111.5 54.7372 110.527 55.1542C109.554 55.5711 108.799 56.1358 108.26 56.8482C107.721 57.5432 107.452 58.4119 107.452 59.4544C107.452 60.966 107.999 62.1215 109.094 62.9207C110.206 63.7026 111.613 64.0935 113.316 64.0935ZM148.727 47.8567V71H137.624V30.9684H148.206V38.0313H148.675C149.561 35.703 151.046 33.8613 153.131 32.5061C155.216 31.1334 157.744 30.4471 160.715 30.4471C163.495 30.4471 165.919 31.0553 167.987 32.2715C170.054 33.4877 171.662 35.2252 172.808 37.4839C173.955 39.7253 174.528 42.401 174.528 45.5111V71H163.426V47.4918C163.443 45.042 162.818 43.1308 161.549 41.7582C160.281 40.3682 158.535 39.6732 156.311 39.6732C154.817 39.6732 153.496 39.9946 152.349 40.6375C151.22 41.2803 150.334 42.2186 149.691 43.4522C149.066 44.6684 148.744 46.1366 148.727 47.8567ZM191.025 71.7558C188.47 71.7558 186.194 71.3127 184.196 70.4266C182.198 69.5231 180.617 68.194 179.453 66.4391C178.306 64.6669 177.733 62.4603 177.733 59.8193C177.733 57.5953 178.141 55.7275 178.958 54.2159C179.774 52.7043 180.886 51.4881 182.294 50.5672C183.701 49.6463 185.3 48.9513 187.089 48.4822C188.896 48.0131 190.79 47.683 192.771 47.4918C195.099 47.2486 196.975 47.0227 198.4 46.8142C199.825 46.5884 200.859 46.2582 201.502 45.8239C202.144 45.3895 202.466 44.7466 202.466 43.8953V43.7389C202.466 42.0883 201.945 40.8112 200.902 39.9077C199.877 39.0042 198.418 38.5525 196.524 38.5525C194.526 38.5525 192.936 38.9956 191.754 39.8817C190.573 40.7504 189.791 41.845 189.409 43.1655L179.14 42.3315C179.661 39.899 180.687 37.7967 182.216 36.0245C183.745 34.2348 185.717 32.8622 188.132 31.9066C190.564 30.9336 193.379 30.4471 196.576 30.4471C198.8 30.4471 200.928 30.7078 202.961 31.229C205.011 31.7502 206.827 32.5582 208.408 33.6528C210.007 34.7474 211.266 36.1548 212.187 37.8749C213.108 39.5776 213.568 41.6192 213.568 43.9995V71H203.039V65.4487H202.727C202.084 66.6997 201.224 67.803 200.146 68.7586C199.069 69.6969 197.775 70.4353 196.263 70.9739C194.751 71.4952 193.005 71.7558 191.025 71.7558ZM194.204 64.0935C195.837 64.0935 197.28 63.7721 198.531 63.1292C199.782 62.469 200.763 61.5828 201.476 60.4709C202.188 59.3589 202.544 58.0992 202.544 56.6918V52.4437C202.197 52.6695 201.719 52.878 201.111 53.0692C200.52 53.2429 199.851 53.408 199.104 53.5644C198.357 53.7034 197.61 53.8337 196.863 53.9553C196.115 54.0595 195.438 54.1551 194.83 54.242C193.527 54.4331 192.389 54.7372 191.416 55.1542C190.443 55.5711 189.687 56.1358 189.148 56.8482C188.609 57.5432 188.34 58.4119 188.34 59.4544C188.34 60.966 188.887 62.1215 189.982 62.9207C191.094 63.7026 192.501 64.0935 194.204 64.0935ZM279.132 36.3111H267.717C267.508 34.8343 267.082 33.5225 266.44 32.3757C265.797 31.2116 264.971 30.2213 263.964 29.4046C262.956 28.588 261.792 27.9625 260.471 27.5282C259.168 27.0938 257.752 26.8766 256.223 26.8766C253.461 26.8766 251.054 27.5629 249.004 28.9355C246.954 30.2908 245.364 32.2715 244.235 34.8777C243.105 37.4666 242.541 40.6114 242.541 44.3123C242.541 48.1173 243.105 51.3143 244.235 53.9032C245.381 56.492 246.98 58.4467 249.03 59.7672C251.08 61.0877 253.452 61.7479 256.145 61.7479C257.657 61.7479 259.055 61.5481 260.341 61.1485C261.644 60.7488 262.8 60.1668 263.807 59.4023C264.815 58.6204 265.649 57.6735 266.309 56.5615C266.987 55.4495 267.456 54.1812 267.717 52.7564L279.132 52.8085C278.837 55.2584 278.098 57.6214 276.917 59.8975C275.753 62.1562 274.18 64.1804 272.199 65.97C270.236 67.7422 267.89 69.1496 265.163 70.1921C262.452 71.2172 259.385 71.7297 255.963 71.7297C251.202 71.7297 246.945 70.6525 243.192 68.498C239.456 66.3435 236.503 63.2248 234.331 59.1417C232.176 55.0586 231.099 50.1154 231.099 44.3123C231.099 38.4917 232.194 33.5399 234.383 29.4568C236.572 25.3737 239.543 22.2636 243.296 20.1265C247.049 17.972 251.271 16.8948 255.963 16.8948C259.055 16.8948 261.922 17.3291 264.563 18.1979C267.221 19.0666 269.576 20.335 271.626 22.003C273.676 23.6536 275.344 25.6777 276.63 28.0755C277.933 30.4732 278.767 33.2184 279.132 36.3111ZM301.433 71.7819C297.385 71.7819 293.884 70.9218 290.93 69.2017C287.994 67.4642 285.727 65.0491 284.128 61.9564C282.53 58.8463 281.73 55.241 281.73 51.1406C281.73 47.0054 282.53 43.3914 284.128 40.2987C285.727 37.1886 287.994 34.7735 290.93 33.0534C293.884 31.3159 297.385 30.4471 301.433 30.4471C305.482 30.4471 308.974 31.3159 311.91 33.0534C314.864 34.7735 317.14 37.1886 318.739 40.2987C320.337 43.3914 321.136 47.0054 321.136 51.1406C321.136 55.241 320.337 58.8463 318.739 61.9564C317.14 65.0491 314.864 67.4642 311.91 69.2017C308.974 70.9218 305.482 71.7819 301.433 71.7819ZM301.486 63.1813C303.327 63.1813 304.865 62.6601 306.099 61.6176C307.332 60.5577 308.262 59.1156 308.887 57.2913C309.53 55.4669 309.852 53.3906 309.852 51.0624C309.852 48.7341 309.53 46.6579 308.887 44.8335C308.262 43.0091 307.332 41.567 306.099 40.5072C304.865 39.4473 303.327 38.9174 301.486 38.9174C299.626 38.9174 298.063 39.4473 296.794 40.5072C295.543 41.567 294.596 43.0091 293.954 44.8335C293.328 46.6579 293.015 48.7341 293.015 51.0624C293.015 53.3906 293.328 55.4669 293.954 57.2913C294.596 59.1156 295.543 60.5577 296.794 61.6176C298.063 62.6601 299.626 63.1813 301.486 63.1813ZM350.357 53.9553V30.9684H361.46V71H350.801V63.7286H350.384C349.48 66.0742 347.977 67.9594 345.875 69.3841C343.79 70.8089 341.244 71.5212 338.239 71.5212C335.563 71.5212 333.208 70.9131 331.176 69.6969C329.143 68.4806 327.553 66.7519 326.406 64.5105C325.277 62.2691 324.704 59.5847 324.686 56.4573V30.9684H335.789V54.4765C335.806 56.8395 336.44 58.7073 337.691 60.0799C338.942 61.4525 340.619 62.1388 342.721 62.1388C344.059 62.1388 345.31 61.8348 346.474 61.2267C347.638 60.6012 348.577 59.6803 349.289 58.4641C350.019 57.2478 350.375 55.7449 350.357 53.9553ZM366.671 71V30.9684H377.435V37.9531H377.852C378.582 35.4685 379.806 33.592 381.527 32.3236C383.247 31.0379 385.227 30.395 387.469 30.395C388.025 30.395 388.624 30.4298 389.267 30.4993C389.91 30.5688 390.475 30.6643 390.961 30.7859V40.6375C390.44 40.4811 389.719 40.3421 388.798 40.2205C387.877 40.0989 387.034 40.038 386.27 40.038C384.637 40.038 383.177 40.3942 381.891 41.1066C380.623 41.8016 379.615 42.7746 378.868 44.0256C378.139 45.2766 377.774 46.7187 377.774 48.3519V71H366.671ZM416.331 30.9684V39.3083H392.224V30.9684H416.331ZM397.697 21.3775H408.799V58.6986C408.799 59.7237 408.956 60.523 409.269 61.0963C409.581 61.6523 410.016 62.0433 410.572 62.2691C411.145 62.495 411.805 62.608 412.552 62.608C413.074 62.608 413.595 62.5645 414.116 62.4776C414.637 62.3734 415.037 62.2952 415.315 62.2431L417.061 70.5048C416.505 70.6786 415.723 70.8784 414.716 71.1042C413.708 71.3475 412.483 71.4952 411.041 71.5473C408.365 71.6516 406.019 71.2954 404.004 70.4788C402.006 69.6621 400.451 68.3938 399.339 66.6737C398.227 64.9536 397.68 62.7817 397.697 60.1581V21.3775Z" fill="#01292D"/>
<rect width="265.348" height="105.4" transform="translate(0 89.9739)" fill="#01292D"/>
<path d="M13.8129 169.174V115.798H35.184C39.1107 115.798 42.3858 116.381 45.0094 117.545C47.633 118.709 49.6051 120.325 50.9256 122.392C52.246 124.442 52.9063 126.805 52.9063 129.481C52.9063 131.566 52.4893 133.399 51.6553 134.98C50.8213 136.544 49.6746 137.83 48.2151 138.837C46.773 139.828 45.1224 140.532 43.2633 140.949V141.47C45.2961 141.557 47.1987 142.13 48.9709 143.19C50.7605 144.25 52.2113 145.735 53.3233 147.647C54.4353 149.54 54.9913 151.799 54.9913 154.423C54.9913 157.255 54.2876 159.783 52.8802 162.007C51.4902 164.213 49.4313 165.96 46.7035 167.245C43.9756 168.531 40.6136 169.174 36.6174 169.174H13.8129ZM25.0979 159.948H34.2978C37.4427 159.948 39.7362 159.348 41.1783 158.15C42.6204 156.933 43.3414 155.318 43.3414 153.302C43.3414 151.825 42.9853 150.522 42.2729 149.393C41.5605 148.263 40.5441 147.377 39.2236 146.734C37.9205 146.091 36.3654 145.77 34.5585 145.77H25.0979V159.948ZM25.0979 138.134H33.4638C35.0102 138.134 36.3828 137.864 37.5817 137.326C38.7979 136.77 39.7535 135.988 40.4485 134.98C41.1609 133.973 41.5171 132.765 41.5171 131.358C41.5171 129.429 40.8308 127.874 39.4582 126.692C38.1029 125.511 36.1743 124.92 33.6723 124.92H25.0979V138.134ZM84.1276 152.129V129.142H95.2301V169.174H84.5706V161.903H84.1536C83.2501 164.248 81.7472 166.133 79.6449 167.558C77.5599 168.983 75.0145 169.695 72.0086 169.695C69.3329 169.695 66.9786 169.087 64.9458 167.871C62.9129 166.655 61.3231 164.926 60.1764 162.684C59.047 160.443 58.4736 157.759 58.4562 154.631V129.142H69.5588V152.65C69.5761 155.013 70.2103 156.881 71.4613 158.254C72.7123 159.626 74.389 160.313 76.4913 160.313C77.8292 160.313 79.0802 160.009 80.2443 159.401C81.4084 158.775 82.3466 157.854 83.059 156.638C83.7888 155.422 84.1449 153.919 84.1276 152.129ZM111.544 115.798V169.174H100.441V115.798H111.544ZM127.87 115.798V169.174H116.768V115.798H127.87ZM151.338 169.956C147.22 169.956 143.676 169.122 140.705 167.454C137.751 165.768 135.475 163.388 133.876 160.313C132.278 157.22 131.479 153.563 131.479 149.341C131.479 145.223 132.278 141.609 133.876 138.499C135.475 135.389 137.725 132.965 140.627 131.227C143.546 129.49 146.968 128.621 150.895 128.621C153.536 128.621 155.995 129.047 158.271 129.898C160.564 130.732 162.562 131.992 164.265 133.677C165.985 135.363 167.323 137.482 168.279 140.036C169.234 142.573 169.712 145.544 169.712 148.95V151.999H135.909V145.118H159.261C159.261 143.52 158.914 142.104 158.219 140.87C157.524 139.637 156.559 138.672 155.326 137.977C154.109 137.265 152.693 136.909 151.078 136.909C149.392 136.909 147.898 137.3 146.595 138.082C145.309 138.846 144.301 139.88 143.572 141.183C142.842 142.469 142.468 143.902 142.451 145.483V152.025C142.451 154.006 142.816 155.717 143.546 157.159C144.293 158.601 145.344 159.713 146.699 160.495C148.054 161.277 149.662 161.668 151.521 161.668C152.754 161.668 153.884 161.494 154.909 161.147C155.934 160.799 156.811 160.278 157.541 159.583C158.271 158.888 158.827 158.037 159.209 157.029L169.478 157.707C168.956 160.174 167.888 162.328 166.272 164.17C164.673 165.994 162.606 167.419 160.069 168.444C157.55 169.452 154.639 169.956 151.338 169.956ZM194.581 129.142V137.482H170.473V129.142H194.581ZM175.946 119.551H187.049V156.873C187.049 157.898 187.205 158.697 187.518 159.27C187.831 159.826 188.265 160.217 188.821 160.443C189.394 160.669 190.055 160.782 190.802 160.782C191.323 160.782 191.844 160.738 192.365 160.652C192.887 160.547 193.286 160.469 193.564 160.417L195.31 168.679C194.754 168.853 193.973 169.052 192.965 169.278C191.957 169.521 190.732 169.669 189.29 169.721C186.614 169.826 184.269 169.469 182.253 168.653C180.255 167.836 178.7 166.568 177.588 164.848C176.476 163.128 175.929 160.956 175.946 158.332V119.551ZM198.143 169.174V129.142H209.246V169.174H198.143ZM203.721 123.982C202.07 123.982 200.654 123.435 199.473 122.34C198.308 121.228 197.726 119.899 197.726 118.353C197.726 116.824 198.308 115.512 199.473 114.417C200.654 113.305 202.07 112.749 203.721 112.749C205.371 112.749 206.779 113.305 207.943 114.417C209.124 115.512 209.715 116.824 209.715 118.353C209.715 119.899 209.124 121.228 207.943 122.34C206.779 123.435 205.371 123.982 203.721 123.982ZM225.573 146.031V169.174H214.47V129.142H225.051V136.205H225.52C226.407 133.877 227.892 132.035 229.977 130.68C232.062 129.307 234.59 128.621 237.561 128.621C240.341 128.621 242.765 129.229 244.833 130.445C246.9 131.662 248.507 133.399 249.654 135.658C250.801 137.899 251.374 140.575 251.374 143.685V169.174H240.272V145.666C240.289 143.216 239.664 141.305 238.395 139.932C237.127 138.542 235.381 137.847 233.157 137.847C231.663 137.847 230.342 138.169 229.195 138.811C228.066 139.454 227.18 140.393 226.537 141.626C225.911 142.842 225.59 144.311 225.573 146.031Z" fill="#71CED1"/>
<rect x="269.935" y="89.9239" width="45.8696" height="50.4565" fill="#71CED1"/>
<rect x="320.391" y="89.9239" width="45.8696" height="50.4565" fill="#71CED1"/>
<rect x="370.848" y="89.9239" width="45.8696" height="50.4565" fill="#71CED1"/>
<rect x="269.935" y="144.967" width="45.8696" height="50.4565" fill="#71CED1"/>
<rect x="320.391" y="144.967" width="45.8696" height="50.4565" fill="#71CED1"/>
<rect x="370.848" y="144.967" width="45.8696" height="50.4565" fill="#71CED1"/>
</svg> 